HIERARCHY
ROOT Hips
{
	OFFSET 0.00000 0.00000 0.00000
	CHANNELS 6 Xposition Yposition Zposition Zrotation Yrotation Xrotation 
	JOINT LHipJoint
	{
		OFFSET 0 0 0
		CHANNELS 3 Zrotation Yrotation Xrotation
		JOINT LeftHip
		{
			OFFSET 1.57314 -1.85774 0.63783
			CHANNELS 3 Zrotation Yrotation Xrotation
			JOINT LeftKnee
			{
				OFFSET 2.57982 -7.08799 0.00000
				CHANNELS 3 Zrotation Yrotation Xrotation
				JOINT LeftAnkle
				{
					OFFSET 2.63993 -7.25315 0.00000
					CHANNELS 3 Zrotation Yrotation Xrotation
					JOINT LeftToe
					{
						OFFSET 0.16864 -0.46332 2.12791
						CHANNELS 3 Zrotation Yrotation Xrotation
						End Site
						{
							OFFSET 0.00000 -0.00000 1.09718
						}
					}
				}
			}
		}
	}
	JOINT RHipJoint
	{
		OFFSET 0 0 0
		CHANNELS 3 Zrotation Yrotation Xrotation
		JOINT RightHip
		{
			OFFSET -1.56006 -1.85774 0.63784
			CHANNELS 3 Zrotation Yrotation Xrotation
			JOINT RightKnee
			{
				OFFSET -2.54246 -6.98536 0.00000
				CHANNELS 3 Zrotation Yrotation Xrotation
				JOINT RightAnkle
				{
					OFFSET -2.65791 -7.30256 0.00000
					CHANNELS 3 Zrotation Yrotation Xrotation
					JOINT RightToe
					{
						OFFSET -0.18435 -0.50650 2.16316
						CHANNELS 3 Zrotation Yrotation Xrotation
						End Site
						{
							OFFSET -0.00000 -0.00000 1.11780
						}
					}
				}
			}
		}
	}
	JOINT lowerback
	{
		OFFSET 0 0 0
		CHANNELS 3 Zrotation Yrotation Xrotation
		JOINT Chest
		{
			OFFSET -0.00136 1.92812 -0.29638
			CHANNELS 3 Zrotation Yrotation Xrotation
			JOINT Chest2
			{
				OFFSET -0.00528 1.96223 -0.02928
				CHANNELS 3 Zrotation Yrotation Xrotation
				JOINT lowerneck
				{
					OFFSET 0 0 0
					CHANNELS 3 Zrotation Yrotation Xrotation
					JOINT Neck
					{
						OFFSET -0.01015 1.75586 0.07797
						CHANNELS 3 Zrotation Yrotation Xrotation
						JOINT Head
						{
							OFFSET 0.05540 1.72452 0.04558
							CHANNELS 3 Zrotation Yrotation Xrotation
							End Site
							{
								OFFSET 0.02170 1.79958 0.00864
							}
						}
					}
				}
				JOINT LeftCollar
				{
					OFFSET 0 0 0
					CHANNELS 3 Zrotation Yrotation Xrotation
					JOINT LeftShoulder
					{
						OFFSET 3.16292 1.29277 -0.65728
CHANNELS 3 Zrotation Xrotation Yrotation
						JOINT LeftElbow
						{
OFFSET 0 -5.523020 -0.000000
CHANNELS 3 Zrotation Xrotation Yrotation
							JOINT LeftWrist
							{
OFFSET 0 -3.586750 -0.000000
CHANNELS 3 Zrotation Xrotation Yrotation
								JOINT lhand
								{
									OFFSET 0 0 0
CHANNELS 3 Zrotation Xrotation Yrotation
									JOINT LFingers
									{
OFFSET 0 -0.536410 -0.000000
CHANNELS 3 Zrotation Xrotation Yrotation
										End Site
										{
OFFSET 0 -0.432470 -0.000000
										}
									}
								}
								JOINT LThumb
								{
OFFSET 0 0.000000 0.000000
CHANNELS 3 Zrotation Xrotation Yrotation
									End Site
									{
OFFSET 0 -0.439070 0.439070
									}
								}
							}
						}
					}
				}
				JOINT RightCollar
				{
					OFFSET 0 0 0
					CHANNELS 3 Zrotation Yrotation Xrotation
					JOINT RightShoulder
					{
						OFFSET -3.08296 1.43376 -0.52927
CHANNELS 3 Zrotation Xrotation Yrotation
						JOINT RightElbow
						{
OFFSET 0 -5.847800 0.000000
CHANNELS 3 Zrotation Xrotation Yrotation
							JOINT RightWrist
							{
OFFSET 0 -3.627170 -0.000000
CHANNELS 3 Zrotation Xrotation Yrotation
								JOINT rhand
								{
									OFFSET 0 0 0
CHANNELS 3 Zrotation Xrotation Yrotation
									JOINT RFingers
									{
OFFSET 0 -0.650520 -0.000000
CHANNELS 3 Zrotation Xrotation Yrotation
										End Site
										{
OFFSET 0 -0.524460 -0.000000
										}
									}
								}
								JOINT RThumb
								{
OFFSET 0 0.000000 0.000000
CHANNELS 3 Zrotation Xrotation Yrotation
									End Site
									{
OFFSET 0 -0.532470 0.532470
									}
								}
							}
						}
					}
				}
			}
		}
	}
}
MOTION
Frames: 6
Frame Time: 0.008333333333333333
0.350181 18.168878 4.846824 -6.150120 -4.469629 5.367847 0.000000 0.000000 0.000000 -5.960841 -11.298828 -51.207642 17.443718 19.835242 82.504061 -0.012473 -5.656478 7.692626 0.484032 -4.461273 -12.378085 0.000000 0.000000 0.000000 30.996490 -0.020380 25.490185 -0.101324 -1.932255 5.321170 -1.164515 -9.878300 19.370585 -0.054600 -1.432459 3.941117 7.994781 1.543284 14.679819 0.104591 3.369633 0.814139 -5.083705 1.388071 -6.918131 -0.694280 -0.561153 -7.347133 0.159979 -0.695154 -8.748315 0.157835 -0.326125 -1.485879 0.000000 0.000000 0.000000 1.193473 31.068541 -33.744429 116.669103 -57.134083 82.873902 37.371149 -19.734923 -8.849185 0.000000 0.000000 0.000000 -7.125000 0.000000 0.000000 9.283876 40.888076 0.950578 0.000000 0.000000 0.000000 -7.585475 -13.427009 40.403880 -126.411054 -54.343500 -90.933747 -37.180138 -25.431511 -25.941273 0.000000 0.000000 0.000000 7.125000 0.000000 0.000000 -4.334467 -1.347839 -4.448311
0.347343 18.190833 4.976671 -6.105960 -4.198288 5.301141 0.000000 0.000000 0.000000 -6.001323 -11.679083 -51.037926 17.055153 19.774326 81.353782 -0.012019 -5.685835 7.750477 0.488096 -4.479618 -12.430056 0.000000 0.000000 0.000000 30.820871 -0.477739 26.409354 -0.075373 -1.437365 3.958309 -1.361545 -10.716301 20.878754 -0.086999 -1.767578 4.867552 7.997142 1.498851 14.687856 0.081773 3.313099 0.768616 -5.100915 1.356012 -6.978593 -0.688241 -0.609060 -7.208000 0.170536 -0.759862 -8.723544 0.160106 -0.358774 -1.500637 0.000000 0.000000 0.000000 1.160620 31.354822 -33.626888 116.735310 -57.118848 82.929505 37.396646 -19.652370 -8.892755 0.000000 0.000000 0.000000 -7.125000 0.000000 0.000000 9.309827 40.944429 0.940134 0.000000 0.000000 0.000000 -7.666825 -13.308628 40.488840 -126.652562 -54.257699 -91.129642 -37.358414 -25.509932 -26.090419 0.000000 0.000000 0.000000 7.125000 0.000000 0.000000 -4.405600 -1.574316 -4.539334
0.344505 18.212788 5.106518 -6.061799 -3.926946 5.234435 0.000000 0.000000 0.000000 -6.041805 -12.059338 -50.868210 16.666588 19.713410 80.203504 -0.011565 -5.715192 7.808328 0.492160 -4.497963 -12.482027 0.000000 0.000000 0.000000 30.645252 -0.935099 27.328523 -0.049422 -0.942475 2.595448 -1.558574 -11.554302 22.386924 -0.119398 -2.102696 5.793987 7.999503 1.454418 14.695893 0.058955 3.256564 0.723094 -5.118125 1.323953 -7.039055 -0.682202 -0.656966 -7.068867 0.181094 -0.824570 -8.698773 0.162376 -0.391423 -1.515395 0.000000 0.000000 0.000000 1.127766 31.641103 -33.509347 116.801516 -57.103613 82.985108 37.422143 -19.569816 -8.936325 0.000000 0.000000 0.000000 -7.125000 0.000000 0.000000 9.335778 41.000781 0.929690 0.000000 0.000000 0.000000 -7.748176 -13.190247 40.573801 -126.894070 -54.171899 -91.325536 -37.536689 -25.588353 -26.239565 0.000000 0.000000 0.000000 7.125000 0.000000 0.000000 -4.476733 -1.800794 -4.630356
0.341667 18.234743 5.236365 -6.017639 -3.655605 5.167730 0.000000 0.000000 0.000000 -6.082287 -12.439593 -50.698493 16.278023 19.652493 79.053225 -0.011111 -5.744549 7.866179 0.496224 -4.516308 -12.533997 0.000000 0.000000 0.000000 30.469632 -1.392459 28.247692 -0.023471 -0.447584 1.232587 -1.755604 -12.392302 23.895094 -0.151798 -2.437815 6.720422 8.001864 1.409985 14.703931 0.036137 3.200030 0.677571 -5.135335 1.291894 -7.099517 -0.676162 -0.704873 -6.929734 0.191652 -0.889277 -8.674003 0.164647 -0.424072 -1.530153 0.000000 0.000000 0.000000 1.094913 31.927384 -33.391806 116.867722 -57.088378 83.040712 37.447640 -19.487262 -8.979895 0.000000 0.000000 0.000000 -7.125000 0.000000 0.000000 9.361729 41.057134 0.919246 0.000000 0.000000 0.000000 -7.829526 -13.071865 40.658761 -127.135577 -54.086099 -91.521431 -37.714965 -25.666775 -26.388711 0.000000 0.000000 0.000000 7.125000 0.000000 0.000000 -4.547866 -2.027271 -4.721378
0.338809 18.256584 5.365875 -5.983460 -3.382637 5.101608 0.000000 0.000000 0.000000 -6.110948 -12.817168 -50.527892 15.888407 19.587990 77.897884 -0.010368 -5.773633 7.931745 0.498824 -4.527956 -12.567017 0.000000 0.000000 0.000000 30.317465 -1.829220 29.097582 0.000000 0.000000 0.000000 -1.948517 -13.192785 25.350100 -0.185456 -2.767538 7.632726 8.012827 1.363235 14.718338 0.016665 3.142786 0.631278 -5.153951 1.258987 -7.164327 -0.669380 -0.751627 -6.799154 0.200364 -0.952512 -8.643618 0.166188 -0.455996 -1.541736 0.000000 0.000000 0.000000 1.062437 32.208485 -33.275280 116.930022 -57.074036 83.093034 37.459486 -19.421348 -9.007327 0.000000 0.000000 0.000000 -7.125000 0.000000 0.000000 9.374340 41.092207 0.912239 0.000000 0.000000 0.000000 -7.910902 -12.952397 40.745538 -127.376018 -54.000344 -91.716370 -37.895884 -25.747588 -26.535428 0.000000 0.000000 0.000000 7.125000 0.000000 0.000000 -4.620846 -2.252127 -4.814441
0.335767 18.277336 5.492203 -6.043718 -3.094290 5.041009 0.000000 0.000000 0.000000 -6.027759 -13.169383 -50.348912 15.488853 19.489543 76.694636 -0.006894 -5.800129 8.070311 0.487562 -4.476235 -12.420732 0.000000 0.000000 0.000000 30.387190 -2.071091 29.291978 0.000000 0.000000 0.000000 -2.102476 -13.638293 26.302100 -0.231024 -3.046213 8.411331 8.105166 1.294554 14.793013 0.028858 3.078828 0.577695 -5.185874 1.218051 -7.270266 -0.655576 -0.787477 -6.749499 0.191623 -1.001803 -8.560111 0.160830 -0.481062 -1.523277 0.000000 0.000000 0.000000 1.033534 32.440570 -33.168365 116.955360 -57.068133 83.114308 37.342172 -19.512870 -8.882066 0.000000 0.000000 0.000000 -7.125000 0.000000 0.000000 9.260727 40.925942 0.937759 0.000000 0.000000 0.000000 -7.992525 -12.822641 40.849502 -127.606355 -53.915021 -91.902275 -38.101814 -25.851030 -26.659168 0.000000 0.000000 0.000000 7.125000 0.000000 0.000000 -4.711301 -2.461645 -4.926805
